<svg xmlns="http://www.w3.org/2000/svg" viewBox="0 0 114 25.99" xmlns:v="https://vecta.io/nano"><g fill="#414141"><path d="M67.38 1.38l-2.28.43v1.85H64l.02 1.89h1.09v5.13c0 .32.05.64.15.94.1.29.26.55.47.77.22.23.48.4.77.52.34.14.7.2 1.07.19h1.63l.2-1.89h-.62c-.33 0-.59 0-.77-.03-.15 0-.3-.07-.41-.18-.1-.13-.17-.28-.18-.44-.03-.28-.04-.56-.04-.84V5.55h2.02V3.66h-2.02V1.38zm36.95 0l-2.28.43v1.85h-1.1v1.89h1.1v5.13c0 .32.05.64.15.94.1.29.26.55.47.77.22.23.48.4.77.52.34.14.7.2 1.07.19h1.63l.2-1.89h-.62c-.33 0-.59 0-.77-.03-.15 0-.3-.07-.41-.18-.11-.13-.17-.28-.18-.44-.03-.28-.04-.56-.04-.84V5.55h2.02V3.66h-2.02V1.38zM70.89 3.66v9.27h2.28V3.66H70.9m10.46 6.8c-.69.49-1.51.75-2.36.76-.66.03-1.3-.26-1.7-.79-.43-.62-.65-1.37-.61-2.12-.04-.75.18-1.5.61-2.12.4-.53 1.04-.82 1.7-.79.85 0 1.67.27 2.36.76l.2-1.96c-.83-.49-1.79-.73-2.76-.69a4.72 4.72 0 0 0-1.89.37 4.14 4.14 0 0 0-1.39 1.02 4.48 4.48 0 0 0-.87 1.51 5.54 5.54 0 0 0-.3 1.89 6.09 6.09 0 0 0 .3 1.9c.19.56.49 1.07.87 1.52.39.43.86.78 1.39 1.01a4.72 4.72 0 0 0 1.89.37c.97.04 1.92-.2 2.76-.69l-.2-1.96z"/><path d="M88.41 3.71L85.49 7.5V.03h-2.28v12.94h2.28V8.85l2.92 4.12h2.57l-3.36-4.83 3.36-4.44h-2.57zm10.36.91c-.37-.36-.8-.63-1.28-.81-.51-.19-1.06-.29-1.61-.29-.63 0-1.26.12-1.85.37-.53.24-1 .59-1.39 1.03-.39.45-.68.97-.87 1.53a5.39 5.39 0 0 0-.3 1.87c0 .65.1 1.29.32 1.9.2.57.53 1.09.95 1.52.44.44.98.79 1.56 1.01.68.26 1.41.38 2.14.37a6.55 6.55 0 0 0 3.07-.7l-.11-1.95a3.93 3.93 0 0 1-.66.3l-.75.24-.74.15c-.23.04-.46.05-.69.06-.64 0-1.27-.21-1.78-.61a2.7 2.7 0 0 1-.97-1.82h5.95c.09-.41.14-.83.15-1.26 0-.56-.1-1.12-.3-1.65-.19-.47-.47-.9-.84-1.26zm-4.89 2.62c.1-.5.34-.97.7-1.33.37-.34.86-.53 1.37-.5a1.42 1.42 0 0 1 1.25.56 2.17 2.17 0 0 1 .41 1.28h-3.73zm19.94 2.05a2.17 2.17 0 0 0-.5-.79c-.23-.23-.5-.42-.8-.55-.33-.16-.68-.29-1.04-.39l-.38-.1-.36-.1-.31-.09c-.27-.1-.53-.23-.76-.41-.2-.16-.3-.41-.28-.66-.02-.32.15-.62.43-.77a2.06 2.06 0 0 1 1.09-.25 3.53 3.53 0 0 1 .72.08c.24.05.47.13.7.22a4.42 4.42 0 0 1 .61.32 4.49 4.49 0 0 1 .49.37l.2-1.96c-.38-.23-.79-.39-1.22-.49-.54-.13-1.1-.2-1.66-.2a4.2 4.2 0 0 0-1.53.25c-.39.14-.74.37-1.04.66-.27.26-.47.58-.6.94-.13.35-.19.72-.19 1.1.01.44.12.88.33 1.27.21.32.49.59.83.77.42.22.87.4 1.32.55l1 .33c.23.08.45.2.63.37.16.17.24.39.22.62 0 .27-.11.54-.31.72-.31.23-.7.34-1.08.3-.26 0-.52-.03-.77-.08l-.78-.22a6.37 6.37 0 0 1-.72-.29c-.2-.09-.39-.21-.56-.34l-.2 1.96c.95.52 1.96.67 3.1.69 2.4.04 3.6-.91 3.6-2.72 0-.37-.05-.75-.18-1.1zM73.3 1.28a1.235 1.235 0 1 1-2.47-.01c0-.69.55-1.23 1.24-1.23a1.23 1.23 0 0 1 1.23 1.23h0z"/></g><path d="M86.46 25.83v-3.55l-2.71-4.92h2.16l1.47 3.06h.02l1.59-3.06h2.02l-2.83 4.98v3.49h-1.73zm5.79-2.77a1.61 1.61 0 0 0 1.59 1.53c.69.03 1.34-.33 1.67-.94l1.12.76c-.6 1.03-1.72 1.63-2.9 1.57-1.7.07-3.15-1.25-3.22-2.95v-.3c-.07-1.8 1.33-3.32 3.13-3.39h.1a2.94 2.94 0 0 1 3.08 2.79v.15c0 .27-.03.54-.08.8h-4.49v-.02zm2.8-1.18c0-.68-.54-1.23-1.22-1.24h-.06a1.44 1.44 0 0 0-1.45 1.24h2.73zm6.87 3.95l-.14-.55c-.44.48-1.08.73-1.73.69-1.15.11-2.18-.74-2.29-1.89v-.13c0-1.57 1.45-2.06 2.77-2.06.39 0 .78.05 1.16.14v-.1c0-.8-.33-1.28-1.26-1.28a4.34 4.34 0 0 0-1.92.55l-.45-1.24c.85-.41 1.78-.64 2.73-.65a2.41 2.41 0 0 1 2.27 1.08c.2.31.36.84.36 1.6v3.83h-1.49zm-.24-2.79c-.28-.07-.57-.11-.86-.12-.63 0-1.37.24-1.37.98a.87.87 0 0 0 .89.85h.07a1.87 1.87 0 0 0 1.28-.55v-1.16zm4.94-2.74a1.83 1.83 0 0 1 1.49-1 2.52 2.52 0 0 1 .82.14l-.41 1.51a1.3 1.3 0 0 0-.61-.14c-.5 0-.95.28-1.2.71v4.32h-1.73v-6.38h1.49l.14.84zm6.38.88c-.34-.32-.79-.51-1.26-.53-.33 0-.61.18-.61.49 0 .39.47.61 1 .82.82.33 1.86.75 1.86 1.96 0 1.41-1.22 2.04-2.45 2.04-.97 0-1.9-.4-2.57-1.1l.98-1.02c.37.45.92.73 1.51.75.35 0 .8-.18.8-.55 0-.45-.59-.65-1.22-.92-.77-.33-1.59-.76-1.59-1.88a2.06 2.06 0 0 1 1.33-1.83c.18-.07.38-.11.59-.12a4.1 4.1 0 0 1 1.28.13c.47.14.91.38 1.27.72l-.94 1.04z" fill="#bfa683"/><path d="M56.41,25.99H2.87c-1.58,0-2.86-1.29-2.87-2.87V2.87C0,1.29,1.29,0,2.87,0H56.41c1.58,0,2.86,1.29,2.86,2.87V23.12c0,1.58-1.28,2.86-2.86,2.87Z" fill="#2e6fa9"/><path d="M15.74 14.33l-.3 2.82h-1.25c-1.26.13-2.48-.5-3.1-1.6-1.11 1.13-2.66 1.72-4.23 1.6-.54 0-1.08-.09-1.59-.29A3.73 3.73 0 0 1 4 16.03c-.37-.37-.65-.81-.84-1.3-.21-.55-.31-1.14-.3-1.73-.03-.86.27-1.7.83-2.35.56-.64 1.25-1.15 2.02-1.51.8-.38 1.66-.66 2.53-.82a16.06 16.06 0 0 1 2.39-.28 2.52 2.52 0 0 0-.6-1.76c-.54-.39-1.21-.58-1.88-.51a8.82 8.82 0 0 0-3.79 1.05l-.3-2.8C5.63 3.24 7.35 2.83 9.1 2.8c3.34 0 5.01 1.85 5.01 5.56v3.74l.04 1.19a1.84 1.84 0 0 0 .17.68.52.52 0 0 0 .37.29c.21.04.42.06.64.06h.44zm-5.09-.81v-3.16c-.53.04-1.05.11-1.56.22-.47.1-.92.26-1.34.48a3.15 3.15 0 0 0-.94.76 1.56 1.56 0 0 0-.36 1.03c0 1.11.62 1.66 1.85 1.66a3.3 3.3 0 0 0 2.35-1h0zm10.93 3.63c-1.63.11-3.25-.24-4.68-1.02l.3-2.93c.27.19.55.36.84.5a8.43 8.43 0 0 0 1.08.44c.38.13.78.24 1.18.32a6.44 6.44 0 0 0 1.16.13 2.37 2.37 0 0 0 1.63-.44c.31-.28.48-.67.47-1.08a1.27 1.27 0 0 0-.33-.93 2.75 2.75 0 0 0-.95-.55l-1.51-.5c-.69-.21-1.35-.49-1.99-.82a3.37 3.37 0 0 1-1.25-1.15 4.3 4.3 0 0 1-.5-1.9 4.9 4.9 0 0 1 .29-1.65c.19-.53.5-1 .9-1.4a4.6 4.6 0 0 1 1.57-.99c.74-.27 1.52-.39 2.31-.37.84 0 1.69.1 2.51.3.65.13 1.27.38 1.84.72l-.3 2.93a5.58 5.58 0 0 0-.73-.55 5.11 5.11 0 0 0-.93-.48c-.34-.14-.69-.25-1.05-.33-.35-.08-.72-.12-1.08-.13-.57-.02-1.14.11-1.65.37-.42.23-.67.67-.65 1.15a1.18 1.18 0 0 0 .43 1c.35.26.74.46 1.15.6l.47.14c.11.04.29.09.54.15l.57.15a10.4 10.4 0 0 1 1.56.58c.45.2.85.49 1.2.83a3.19 3.19 0 0 1 .76 1.19 4.53 4.53 0 0 1 .26 1.63c0 2.71-1.81 4.07-5.43 4.07zm19.65-2.82l-.3 2.82h-1.25c-1.26.13-2.48-.5-3.1-1.6-1.11 1.13-2.66 1.72-4.23 1.6-.54 0-1.08-.09-1.59-.29a3.73 3.73 0 0 1-1.27-.83c-.37-.37-.65-.81-.84-1.3-.21-.55-.31-1.14-.3-1.73-.03-.86.27-1.7.83-2.35.56-.64 1.25-1.15 2.02-1.51.8-.38 1.66-.66 2.53-.82a16.06 16.06 0 0 1 2.39-.28 2.52 2.52 0 0 0-.6-1.76c-.54-.39-1.21-.58-1.88-.51-1.33.06-2.62.42-3.79 1.06l-.3-2.8c1.57-.78 3.29-1.19 5.04-1.22 3.34 0 5.01 1.85 5.01 5.56v3.74l.04 1.19a1.84 1.84 0 0 0 .17.68.52.52 0 0 0 .37.29c.21.04.42.06.64.06h.44zm-5.09-.81v-3.16c-.53.04-1.05.11-1.56.22-.47.1-.92.26-1.34.48a3.15 3.15 0 0 0-.94.76 1.59 1.59 0 0 0-.36 1.02c0 1.11.62 1.66 1.85 1.66a3.31 3.31 0 0 0 2.35-.99h0zm13.67 3.63a5.58 5.58 0 0 1-3.24-.94v6.78h-3.43V3.03h2.99l.28.81c1-.68 2.19-1.04 3.4-1.02.97-.02 1.94.17 2.84.55.81.35 1.54.87 2.13 1.52.59.67 1.05 1.44 1.34 2.28a8.13 8.13 0 0 1 .47 2.81c0 .95-.15 1.9-.46 2.8a6.92 6.92 0 0 1-1.31 2.28c-.59.66-1.32 1.19-2.14 1.53a7.1 7.1 0 0 1-2.88.55zm-.23-11.51c-.94-.06-1.85.38-2.38 1.16-.57.96-.85 2.07-.79 3.18a5.55 5.55 0 0 0 .79 3.18c.53.78 1.44 1.22 2.38 1.16.99.05 1.95-.39 2.56-1.18.65-.92.97-2.04.91-3.17.06-1.13-.26-2.24-.91-3.17-.61-.79-1.57-1.23-2.56-1.18z" fill="#fff"/><path d="M82.23 20.78v-1.82h-1.57v1.82h-.88c-.01.55-.05 1.08-.17 1.57h1.04v1.82h1.57v-1.82h1.82v-1.57h-1.82zm-12.15 2.95h-1.99l1.27-1.06c.12-.09.22-.19.32-.3-.07-.4-.11-.82-.11-1.26 0-1.53.43-2.84 1.16-3.8-.73-.92-1.86-1.43-3.04-1.36A3.41 3.41 0 0 0 64 19.06l-.01.25v.25h2.47v-.25c-.03-.61.44-1.12 1.04-1.15h.19c.76 0 1.19.38 1.19 1.02-.15.71-.56 1.33-1.15 1.74l-3.61 3.31.25 1.57h7.26c-.63-.56-1.25-1.24-1.57-2.08zm7.64-6.29a4.04 4.04 0 0 0-3.23-1.49c-2.59 0-4.38 2.08-4.38 5.01s1.78 5.01 4.38 5.01 4.42-2.12 4.42-5.01c.02-1.28-.4-2.52-1.19-3.53zm-3.23 6.46c-1.1 0-1.87-1.19-1.87-2.89s.77-2.89 1.87-2.89 1.91 1.19 1.91 2.89c0 1.44-.64 2.89-1.91 2.89z" fill="#bfa683"/></svg>